<?xml version="1.0" encoding="iso-8859-1"?>
<!-- Generator: Adobe Illustrator 19.0.0, SVG Export Plug-In . SVG Version: 6.00 Build 0)  -->
<svg version="1.1" id="Layer_1" xmlns="http://www.w3.org/2000/svg" xmlns:xlink="http://www.w3.org/1999/xlink" x="0px" y="0px"
	 viewBox="0 0 512 512" style="enable-background:new 0 0 512 512;" xml:space="preserve">
<circle style="fill:#0C8FAA;" cx="256" cy="256" r="247.83"/>
<path style="fill:#FFFFFF;" d="M127.465,194.033v-91.506h-22.081C65.584,141.592,40.851,195.958,40.851,256
	c0,8.519,0.514,16.919,1.482,25.182l95.475,18.285V215.82L127.465,194.033z"/>
<polygon style="fill:#C4F5FF;" points="212.977,194.033 191.189,161.352 180.296,117.777 158.509,117.777 127.465,102.526 
	127.465,194.033 137.808,215.821 137.808,299.467 212.977,313.863 "/>
<path style="fill:#4DE1FF;" d="M385.087,281.183c-17.662,0-33.269-9.946-43.009-25.183c-9.755,15.237-25.378,25.183-43.039,25.183
	c-17.676,0-33.283-9.946-43.024-25.183c-9.726,15.237-25.378,25.183-43.038,25.183s-33.284-9.946-43.024-25.183
	c-9.755,15.237-25.378,25.183-43.038,25.183c-17.662,0-33.284-9.946-43.024-25.183c-9.453,14.809-24.511,24.591-41.564,25.13
	C54.813,387.966,145.867,471.149,256,471.149c98.595,0,181.898-66.667,207.23-157.288L385.087,281.183z"/>
<polygon style="fill:#FFFFFF;" points="374.758,161.352 374.758,183.139 342.077,215.82 342.077,313.866 417.782,313.866 
	417.782,150.458 "/>
<path style="fill:#C4F5FF;" d="M471.149,256c0-38.327-10.074-74.34-27.713-105.542h-25.653v163.408h45.463
	C468.395,295.448,471.149,276.039,471.149,256z"/>
<g>
	<polygon style="fill:#FFFFFF;" points="307.207,390.118 267.445,406.458 256.551,422.799 332.807,422.799 	"/>
	<polygon style="fill:#FFFFFF;" points="176.483,346.543 158.509,357.437 147.615,379.224 212.977,379.224 212.977,368.331 	"/>
</g>
<g>
	<path style="fill:#03242B;" d="M169.952,231.489c4.512,0,8.17-3.657,8.17-8.17v-10.894c0-4.513-3.658-8.17-8.17-8.17
		s-8.17,3.657-8.17,8.17v10.894C161.782,227.832,165.44,231.489,169.952,231.489z"/>
	<path style="fill:#03242B;" d="M417.782,240.331c-4.512,0-8.17,3.657-8.17,8.17v10.894c0,4.513,3.658,8.17,8.17,8.17
		s8.17-3.657,8.17-8.17v-10.894C425.952,243.989,422.294,240.331,417.782,240.331z"/>
	<path style="fill:#03242B;" d="M450.548,146.437c-1.45-2.564-4.167-4.149-7.112-4.149h-25.653c-0.319,0-0.633,0.023-0.943,0.059
		c-0.081,0.01-0.159,0.025-0.24,0.037c-0.239,0.035-0.473,0.077-0.704,0.133c-0.039,0.01-0.079,0.012-0.119,0.023l-43.024,10.894
		c-3.625,0.918-6.165,4.18-6.165,7.921v18.404L336.3,210.045c-1.533,1.533-2.393,3.61-2.393,5.778v89.872h-2.723
		c-4.512,0-8.17,3.657-8.17,8.17c0,4.513,3.658,8.17,8.17,8.17h121.005c-9.685,28.75-25.708,55.246-47.362,77.666
		c-3.135,3.245-3.045,8.417,0.2,11.552c1.586,1.532,3.631,2.293,5.674,2.293c2.138,0,4.275-0.834,5.878-2.495
		c40.459-41.889,62.74-96.954,62.74-155.052C479.319,217.617,469.37,179.731,450.548,146.437z M382.929,305.692v-57.191
		c0-4.513-3.658-8.17-8.17-8.17c-4.512,0-8.17,3.657-8.17,8.17v57.191h-16.34v-86.489l30.288-30.288
		c1.533-1.533,2.393-3.61,2.393-5.778V167.71l26.684-6.756v54.865c0,4.513,3.658,8.17,8.17,8.17s8.17-3.657,8.17-8.17v-57.191
		h12.653c15.958,29.828,24.372,63.388,24.372,97.373c0,16.94-2.048,33.601-6.019,49.692H382.929z"/>
	<path style="fill:#03242B;" d="M381.322,420.598c-36.316,27.725-79.653,42.38-125.322,42.38
		c-102.27,0-188.76-74.538-204.451-174.697c12.272-2.415,23.488-8.949,32.362-18.829c11.428,12.619,26.878,19.899,43.004,19.899
		c16.131,0,31.594-7.289,43.034-19.926c11.432,12.637,26.892,19.926,43.029,19.926c16.153,0,31.617-7.287,43.042-19.918
		c11.431,12.631,26.888,19.918,43.02,19.918c4.1,0,8.197-0.461,12.179-1.37c4.399-1.004,7.151-5.384,6.147-9.782
		c-1.004-4.399-5.383-7.158-9.784-6.147c-2.79,0.636-5.664,0.96-8.542,0.96c-14.267,0-27.44-7.804-36.14-21.412
		c-1.501-2.348-4.096-3.769-6.884-3.769c-2.791,0.001-5.386,1.424-6.887,3.774c-6.999,10.964-16.917,18.152-27.981,20.532v-78.103
		c0-1.612-0.477-3.191-1.373-4.532l-21.002-31.503l-10.55-42.202c-0.909-3.637-4.177-6.189-7.926-6.189h-19.888l-29.34-14.414
		c-0.045-0.022-0.093-0.037-0.138-0.059c-0.191-0.089-0.385-0.171-0.584-0.246c-0.082-0.031-0.163-0.062-0.246-0.09
		c-0.202-0.069-0.409-0.127-0.617-0.181c-0.081-0.021-0.16-0.044-0.241-0.062c-0.219-0.049-0.442-0.085-0.668-0.115
		c-0.072-0.01-0.143-0.025-0.215-0.033c-0.294-0.032-0.592-0.051-0.894-0.051h-22.081c-2.141,0-4.196,0.84-5.724,2.339
		C56.468,139.091,32.681,195.667,32.681,256c0,8.61,0.515,17.38,1.529,26.066c6.329,53.989,32.206,103.753,72.882,140.219
		c41.022,36.779,93.905,57.034,148.908,57.034c49.284,0,96.049-15.815,135.239-45.734c3.586-2.738,4.274-7.865,1.536-11.451
		C390.037,418.548,384.911,417.858,381.322,420.598z M108.76,110.695h10.534v83.337c0,1.211,0.27,2.409,0.79,3.504l9.554,20.124
		v25.394c0,4.513,3.658,8.17,8.17,8.17s8.17-3.657,8.17-8.17v-27.234c0-1.211-0.27-2.409-0.79-3.504l-9.554-20.124v-76.549
		l19.271,9.468c1.121,0.551,2.354,0.838,3.603,0.838h15.408l9.347,37.386c0.227,0.909,0.609,1.771,1.129,2.55l20.415,30.622v75.627
		c-11.048-2.384-20.963-9.571-27.97-20.534c-1.5-2.346-4.094-3.768-6.88-3.769c-2.788,0-5.381,1.419-6.884,3.765
		c-8.715,13.61-21.893,21.417-36.157,21.417c-13.587,0-26.17-7.088-34.853-19.515v-62.858c0-4.513-3.658-8.17-8.17-8.17
		s-8.17,3.657-8.17,8.17v62.865c-6.73,9.63-15.896,16.087-26.056,18.462c-0.414-5.345-0.643-10.689-0.643-15.966
		C49.021,201.192,70.209,149.723,108.76,110.695z"/>
	<path style="fill:#03242B;" d="M326.278,338.373h-10.894c-4.512,0-8.17,3.657-8.17,8.17c0,4.513,3.658,8.17,8.17,8.17h10.894
		c4.512,0,8.17-3.657,8.17-8.17C334.448,342.03,330.79,338.373,326.278,338.373z"/>
	<path style="fill:#03242B;" d="M298.504,322.033c4.512,0,8.17-3.657,8.17-8.17c0-4.513-3.658-8.17-8.17-8.17H287.61
		c-4.512,0-8.17,3.657-8.17,8.17c0,4.513,3.658,8.17,8.17,8.17H298.504z"/>
	<path style="fill:#03242B;" d="M390.525,338.373h-10.894c-4.512,0-8.17,3.657-8.17,8.17c0,4.513,3.658,8.17,8.17,8.17h10.894
		c4.512,0,8.17-3.657,8.17-8.17C398.695,342.03,395.037,338.373,390.525,338.373z"/>
	<path style="fill:#03242B;" d="M140.531,313.863c0-4.513-3.658-8.17-8.17-8.17h-10.894c-4.512,0-8.17,3.657-8.17,8.17
		c0,4.513,3.658,8.17,8.17,8.17h10.894C136.874,322.033,140.531,318.376,140.531,313.863z"/>
	<path style="fill:#03242B;" d="M260.646,401.927l-8.468,12.702h-6.521c-4.512,0-8.17,3.657-8.17,8.17c0,4.513,3.658,8.17,8.17,8.17
		h10.872c0.033,0,87.171,0,87.171,0c4.512,0,8.17-3.657,8.17-8.17c0-4.513-3.658-8.17-8.17-8.17h-6.915l-23.147-29.549
		c-2.256-2.88-6.153-3.91-9.537-2.52l-39.762,16.34C262.834,399.52,261.548,400.574,260.646,401.927z M304.59,400.027l11.438,14.602
		h-44.211l1.041-1.562L304.59,400.027z"/>
	<path style="fill:#03242B;" d="M136.72,387.394h10.85c0.069,0,76.299,0,76.299,0c4.512,0,8.17-3.657,8.17-8.17
		c0-4.513-3.658-8.17-8.17-8.17h-2.723v-2.723c0-2.877-1.512-5.54-3.982-7.014l-36.494-21.787c-2.597-1.55-5.837-1.539-8.423,0.027
		l-17.974,10.894c-1.318,0.798-2.384,1.954-3.073,3.333l-8.635,17.271h-5.844c-4.512,0-8.17,3.657-8.17,8.17
		C128.55,383.737,132.208,387.394,136.72,387.394z M164.76,363.201l11.754-7.123l25.086,14.977h-40.766L164.76,363.201z"/>
	<path style="fill:#03242B;" d="M437.019,74.981C388.668,26.628,324.38,0,256,0S123.332,26.628,74.981,74.981
		C26.628,123.333,0,187.62,0,256s26.628,132.667,74.981,181.019C123.332,485.372,187.62,512,256,512s132.668-26.628,181.019-74.981
		C485.372,388.667,512,324.38,512,256S485.372,123.333,437.019,74.981z M256,495.66c-132.149,0-239.66-107.51-239.66-239.66
		S123.851,16.34,256,16.34S495.66,123.851,495.66,256S388.149,495.66,256,495.66z"/>
</g>
<g>
</g>
<g>
</g>
<g>
</g>
<g>
</g>
<g>
</g>
<g>
</g>
<g>
</g>
<g>
</g>
<g>
</g>
<g>
</g>
<g>
</g>
<g>
</g>
<g>
</g>
<g>
</g>
<g>
</g>
</svg>
